tugOfWar_states
version=1
nRows=20
nColumns=17
inDegrees=yes

# SIMM Motion File Header:
name tugOfWar_states
datacolumns 17
datarows 20
otherdata 1
range 0.00000000 0.05573711
endheader
time	blockToGround_xTranslation	blockToGround_yTranslation	blockToGround_zTranslation	blockToGround_xRotation	blockToGround_yRotation	blockToGround_zRotation	blockToGround_xTranslation_u	blockToGround_yTranslation_u	blockToGround_zTranslation_u	blockToGround_xRotation_u	blockToGround_yRotation_u	blockToGround_zRotation_u	muscle1.activation	muscle1.fiber_length	muscle2.activation	muscle2.fiber_length
      0.00000000	      0.05012468	     -0.00000031	     -0.04987533	      0.14286550	     -0.00031696	     -0.14286544	      0.05012469	     -0.00000062	     -0.04987531	      0.14288135	      0.00000000	     -0.14288135	      1.00000000	      0.05005016	      0.05000000	      0.14876057
      0.00102975	      0.05017353	     -0.00000031	     -0.04992618	      0.14162963	      0.00012349	     -0.14181605	      0.04471293	      0.00001009	     -0.04879403	     -2.51792464	      0.83947372	      2.15868620	      0.99897078	      0.05004584	      0.04994854	      0.14878257
      0.00302978	      0.05025193	     -0.00000027	     -0.05002066	      0.13171689	      0.00333811	     -0.13330511	      0.03364645	      0.00002755	     -0.04556328	     -7.33984698	      2.33861691	      6.31584374	      0.99697481	      0.05002833	      0.04984874	      0.14886566
      0.00502980	      0.05030780	     -0.00000020	     -0.05010767	      0.11255326	      0.00945286	     -0.11679888	      0.02216615	      0.00003820	     -0.04128218	    -11.75221072	      3.72529878	     10.15296183	      0.99498283	      0.05000074	      0.04974914	      0.14896410
      0.00760066	      0.05034565	     -0.00000010	     -0.05020575	      0.07561015	      0.02129485	     -0.08473142	      0.00732111	      0.00003850	     -0.03494965	    -16.89176104	      5.44598021	     14.76740562	      0.99242815	      0.04995425	      0.04962141	      0.14905043
      0.01017151	      0.05034535	     -0.00000002	     -0.05028649	      0.02626463	      0.03751611	     -0.04121464	     -0.00753242	      0.00002050	     -0.02773922	    -21.36862442	      7.14543696	     19.04784032	      0.98988004	      0.04989986	      0.04949400	      0.14913921
      0.01327649	      0.05029475	     -0.00000002	     -0.05035854	     -0.04757073	      0.06295141	      0.02555131	     -0.02495937	     -0.00002815	     -0.01860926	    -26.03358724	      9.24055978	     23.88886622	      0.98681126	      0.04982977	      0.04934056	      0.14920192
      0.01638146	      0.05019113	     -0.00000022	     -0.05040176	     -0.13470682	      0.09449607	      0.10683438	     -0.04155508	     -0.00010743	     -0.00930868	    -29.86810425	     11.10582855	     28.41236273	      0.98375199	      0.04976080	      0.04918760	      0.14924407
      0.02250602	      0.04984775	     -0.00000157	     -0.05040769	     -0.33484484	      0.17071189	      0.30772468	     -0.06930859	     -0.00035037	      0.00665240	    -34.75904904	     13.85972862	     37.03556654	      0.97774535	      0.04964454	      0.04888727	      0.14923344
      0.02550098	      0.04962341	     -0.00000285	     -0.05037782	     -0.44112362	      0.21282455	      0.42497085	     -0.08018646	     -0.00050531	      0.01313038	    -35.80200618	     14.74083525	     41.03922774	      0.97482143	      0.04960158	      0.04874107	      0.14920252
      0.02928171	      0.04929880	     -0.00000517	     -0.05031524	     -0.57776075	      0.26851386	      0.58981136	     -0.09095063	     -0.00072604	      0.01964243	    -35.88331432	     15.41091697	     45.84229845	      0.97114285	      0.04956182	      0.04855714	      0.14911436
      0.03245633	      0.04899916	     -0.00000778	     -0.05024593	     -0.69104402	      0.31607345	      0.74184414	     -0.09744215	     -0.00092390	      0.02385685	    -34.81624374	     15.54109058	     49.53433359	      0.96806472	      0.04954074	      0.04840324	      0.14903697
      0.03563096	      0.04868292	     -0.00001104	     -0.05016538	     -0.79954940	      0.36297525	      0.90513097	     -0.10131389	     -0.00112534	      0.02659586	    -32.78388949	     15.28318439	     52.88528596	      0.96499635	      0.04953009	      0.04824982	      0.14891897
      0.03831609	      0.04840856	     -0.00001428	     -0.05009173	     -0.88533495	      0.40118430	      1.05105981	     -0.10277270	     -0.00128996	      0.02815627	    -30.26782406	     14.71943833	     55.30523694	      0.96240868	      0.04952829	      0.04812043	      0.14884439
      0.04100123	      0.04813279	     -0.00001796	     -0.05001523	     -0.96366450	      0.43718663	      1.20300972	     -0.10231501	     -0.00144545	      0.02864679	    -27.15183660	     13.87456931	     57.35628129	      0.95982795	      0.04953055	      0.04799140	      0.14873848
      0.04368636	      0.04786054	     -0.00002203	     -0.04993845	     -1.03295231	      0.47023753	      1.35983432	     -0.10019397	     -0.00158466	      0.02842669	    -23.43642720	     12.72648518	     58.91421449	      0.95725414	      0.04953586	      0.04786271	      0.14865053
      0.04700282	      0.04753581	     -0.00002753	     -0.04984621	     -1.10385830	      0.50588731	      1.55814610	     -0.09517263	     -0.00172876	      0.02693184	    -18.21056080	     10.94196506	     60.12017565	      0.95408470	      0.04954633	      0.04770424	      0.14851853
      0.04965243	      0.04729071	     -0.00003223	     -0.04977702	     -1.14749625	      0.52951228	      1.71840660	     -0.08963093	     -0.00181317	      0.02523964	    -13.57685911	      9.22648924	     60.35231530	      0.95156010	      0.04955737	      0.04757800	      0.14844606
      0.05230204	      0.04706212	     -0.00003712	     -0.04971310	     -1.17860094	      0.54824385	      1.87830313	     -0.08271801	     -0.00186766	      0.02294198	     -8.74310885	      7.33811998	     59.89808410	      0.94904217	      0.04957030	      0.04745211	      0.14835521
      0.05573711	      0.04679519	     -0.00004357	     -0.04963954	     -1.19969305	      0.56481781	      2.08163705	     -0.07258324	     -0.00188047	      0.02001087	     -2.40711017	      4.77183082	     57.96418556	      0.94578774	      0.04958912	      0.04728939	      0.14826574
